<svg width="54" height="24" viewBox="0 0 54 24" fill="none" xmlns="http://www.w3.org/2000/svg">
<g id="logos:visaelectron" clip-path="url(#clip0_5226_480)">
<path id="Vector" d="M20.5025 0.307368L13.4325 17.1406H8.82014L5.34094 3.70611C5.13 2.88063 4.9467 2.57684 4.30481 2.22779C3.25561 1.65895 1.52297 1.12695 0 0.796L0.102727 0.307368H7.52857C8.47357 0.307368 9.32449 0.935368 9.54091 2.02274L11.3792 11.7644L15.9178 0.307368H20.5025ZM26.7378 0.307368L23.1301 17.1406H18.7663L22.3744 0.307368H26.738H26.7378ZM38.5748 11.6446C38.5929 7.20274 32.4209 6.95621 32.4612 4.97158C32.4759 4.36821 33.0518 3.72589 34.3124 3.56168C34.9367 3.48105 36.6618 3.41684 38.6157 4.31537L39.3801 0.743579C38.3303 0.364632 36.9792 0 35.2987 0C30.985 0 27.9507 2.28674 27.9264 5.56379C27.8982 7.98779 30.0938 9.33874 31.745 10.1461C33.4458 10.9705 34.0162 11.5004 34.0084 12.2373C33.9962 13.3667 32.65 13.8667 31.3985 13.8853C29.2039 13.92 27.9317 13.2933 26.9169 12.8215L26.1248 16.5116C27.1458 16.9785 29.0273 17.3842 30.9762 17.4048C35.562 17.4048 38.5613 15.1444 38.5748 11.6448V11.6446ZM49.9654 17.1406H54L50.4752 0.307368H46.7528C45.9133 0.307368 45.2077 0.793684 44.8947 1.54126L38.3472 17.1406H42.9294L43.8383 14.6261H49.4366L49.9656 17.1406H49.9654ZM45.0949 11.1766L47.3924 4.85516L48.7122 11.1766H45.0946H45.0949ZM32.3226 21.7741H30.5494V23.4211H32.5327V23.9162H29.9521V19.3474H32.431V19.8425H30.5494V21.2861H32.3224V21.7745L32.3226 21.7741ZM33.4488 19.1034H34.0462V23.916H33.4488V19.1034ZM35.5535 22.384C35.567 23.1909 36.0766 23.5229 36.6808 23.5229C37.109 23.5229 37.3737 23.4484 37.5914 23.3537L37.6998 23.7808C37.4893 23.8756 37.1227 23.9907 36.5993 23.9907C35.5877 23.9907 34.9834 23.3198 34.9834 22.3299C34.9834 21.3404 35.567 20.5674 36.5249 20.5674C37.6049 20.5674 37.8833 21.5032 37.8833 22.1063C37.8833 22.2282 37.8764 22.3162 37.8626 22.3842H35.5535V22.384ZM37.3058 21.9571C37.3127 21.5844 37.1497 20.9945 36.4772 20.9945C35.8659 20.9945 35.6077 21.5436 35.5601 21.9571H37.3058ZM41.1351 23.8008C40.979 23.8756 40.6325 23.9909 40.1912 23.9909C39.1996 23.9909 38.5543 23.3198 38.5543 22.3164C38.5543 21.3063 39.2468 20.5676 40.3201 20.5676C40.6732 20.5676 40.9856 20.6554 41.1486 20.7438L41.0132 21.1979C40.87 21.1234 40.646 21.0417 40.3201 21.0417C39.566 21.0417 39.1589 21.6044 39.1589 22.2827C39.1589 23.0417 39.6478 23.5095 40.2998 23.5095C40.6394 23.5095 40.8634 23.4282 41.0332 23.3537L41.1351 23.8008ZM42.8117 19.8488V20.6352H43.6672V21.0891H42.8117V22.8585C42.8117 23.2657 42.9273 23.4958 43.2599 23.4958C43.4227 23.4958 43.5181 23.4825 43.6065 23.455L43.6337 23.9097C43.5181 23.9501 43.3348 23.9907 43.1038 23.9907C42.8252 23.9907 42.6009 23.8958 42.4586 23.7402C42.2955 23.5568 42.2276 23.2657 42.2276 22.8792V21.0891H41.718V20.6352H42.2276V20.0253L42.8119 19.8491L42.8117 19.8488ZM44.5019 21.6589C44.5019 21.2724 44.4947 20.9404 44.4747 20.6352H44.9978L45.0252 21.2857H45.0451C45.1948 20.8455 45.5612 20.5674 45.9618 20.5674C46.0232 20.5674 46.0709 20.5743 46.1253 20.5808V21.1438C46.0641 21.1299 46.0031 21.1299 45.9211 21.1299C45.5005 21.1299 45.2012 21.4417 45.12 21.8895C45.1059 21.9814 45.0991 22.0743 45.0995 22.1674V23.9164H44.5019V21.6589ZM49.7988 22.2484C49.7988 23.4619 48.9495 23.9907 48.1619 23.9907C47.2787 23.9907 46.5862 23.3398 46.5862 22.3029C46.5862 21.2114 47.3129 20.5676 48.2163 20.5676C49.1602 20.5676 49.7988 21.2518 49.7988 22.2486V22.2484ZM47.1973 22.2825C47.1973 23.0011 47.6048 23.5436 48.1889 23.5436C48.7597 23.5436 49.1873 23.0076 49.1873 22.2688C49.1873 21.7131 48.9088 21.0145 48.2024 21.0145C47.5031 21.0145 47.1973 21.6657 47.1973 22.2825ZM50.7146 21.5232C50.7146 21.1777 50.7075 20.9063 50.6872 20.6354H51.2171L51.2511 21.1777H51.2646C51.4276 20.8724 51.8079 20.5676 52.3513 20.5676C52.8061 20.5676 53.5127 20.8387 53.5127 21.9636V23.9162H52.9151V22.0248C52.9151 21.4964 52.7181 21.0554 52.1545 21.0554C51.7672 21.0554 51.4614 21.3335 51.3532 21.6655C51.3257 21.7402 51.3122 21.8417 51.3122 21.9436V23.9162H50.7146V21.5232Z" fill="#1A1F71"/>
</g>
<defs>
<clipPath id="clip0_5226_480">
<rect width="54" height="24" fill="white"/>
</clipPath>
</defs>
</svg>
